<?xml version="1.0" encoding="iso-8859-1"?>
<!-- Generator: Adobe Illustrator 19.0.0, SVG Export Plug-In . SVG Version: 6.00 Build 0)  -->
<svg version="1.1" id="Layer_1" xmlns="http://www.w3.org/2000/svg" xmlns:xlink="http://www.w3.org/1999/xlink" x="0px" y="0px"
	 viewBox="0 0 512 512" style="enable-background:new 0 0 512 512;" xml:space="preserve">
<g>
	
		<rect x="325.269" y="265.519" transform="matrix(0.7071 -0.7071 0.7071 0.7071 -141.2191 334.5835)" style="fill:#415E72;" width="16" height="144.479"/>
	
		<rect x="121.926" y="77.79" transform="matrix(0.7171 -0.697 0.697 0.7171 -49.7121 125.656)" style="fill:#415E72;" width="16" height="92.546"/>
	
		<rect x="274.925" y="110.752" transform="matrix(0.746 -0.6659 0.6659 0.746 3.8556 247.6121)" style="fill:#415E72;" width="103.237" height="16"/>
	
		<rect x="89.107" y="297.163" transform="matrix(0.7367 -0.6762 0.6762 0.7367 -174.1167 163.1338)" style="fill:#415E72;" width="66.647" height="15.992"/>
</g>
<circle style="fill:#FFFFFF;" cx="394.88" cy="51.2" r="43.2"/>
<path style="fill:#25B6D2;" d="M394.88,16c19.44,0,35.2,15.76,35.2,35.2s-15.76,35.2-35.2,35.2s-35.2-15.76-35.2-35.2
	C359.704,31.768,375.448,16.024,394.88,16 M394.88,0c-28.28,0-51.2,22.92-51.2,51.2s22.92,51.2,51.2,51.2s51.2-22.92,51.2-51.2
	S423.16,0,394.88,0L394.88,0z"/>
<circle style="fill:#FFFFFF;" cx="84.376" cy="78.608" r="22.72"/>
<path style="fill:#25B6D2;" d="M84.384,63.896c8.128,0,14.72,6.592,14.72,14.72s-6.592,14.72-14.72,14.72s-14.72-6.592-14.72-14.72
	l0,0C69.672,70.488,76.256,63.904,84.384,63.896 M84.384,47.896c-16.968,0-30.72,13.752-30.72,30.72s13.752,30.72,30.72,30.72
	s30.72-13.752,30.72-30.72S101.352,47.896,84.384,47.896L84.384,47.896z"/>
<circle style="fill:#FFFFFF;" cx="424.32" cy="440.32" r="63.68"/>
<path style="fill:#25B6D2;" d="M424.32,384.64c30.752,0,55.68,24.928,55.68,55.68S455.072,496,424.32,496s-55.68-24.928-55.68-55.68
	l0,0C368.672,409.584,393.584,384.672,424.32,384.64 M424.32,368.64c-39.584,0-71.68,32.096-71.68,71.68S384.736,512,424.32,512
	S496,479.904,496,440.32l0,0C496,400.736,463.904,368.64,424.32,368.64z"/>
<circle style="fill:#FFFFFF;" cx="67.2" cy="358.4" r="43.2"/>
<path style="fill:#25B6D2;" d="M67.2,323.2c19.44,0,35.2,15.76,35.2,35.2s-15.76,35.2-35.2,35.2S32,377.84,32,358.4l0,0
	C32,338.96,47.76,323.2,67.2,323.2L67.2,323.2 M67.2,307.2c-28.28,0-51.2,22.92-51.2,51.2s22.92,51.2,51.2,51.2
	s51.2-22.92,51.2-51.2S95.48,307.2,67.2,307.2L67.2,307.2z"/>
<path style="fill:#FFFFFF;" d="M220.8,319.68c-52.136,0-94.4-42.264-94.4-94.4s42.264-94.4,94.4-94.4s94.4,42.264,94.4,94.4l0,0
	C315.144,277.392,272.912,319.624,220.8,319.68z"/>
<path style="fill:#25B6D2;" d="M220.8,138.88c47.72,0,86.4,38.68,86.4,86.4s-38.68,86.4-86.4,86.4s-86.4-38.68-86.4-86.4l0,0
	C134.456,177.584,173.104,138.936,220.8,138.88 M220.8,122.88c-56.552,0-102.4,45.848-102.4,102.4s45.848,102.4,102.4,102.4
	s102.4-45.848,102.4-102.4l0,0C323.2,168.728,277.352,122.88,220.8,122.88z"/>
<circle style="fill:#AAC1CE;" cx="220.8" cy="225.28" r="40.96"/>
<g>
</g>
<g>
</g>
<g>
</g>
<g>
</g>
<g>
</g>
<g>
</g>
<g>
</g>
<g>
</g>
<g>
</g>
<g>
</g>
<g>
</g>
<g>
</g>
<g>
</g>
<g>
</g>
<g>
</g>
</svg>
